<svg xmlns="http://www.w3.org/2000/svg" viewBox="0 0 595.28 595.28">
  <path fill="#010101" d="M484.85 219.48c-4.25-12.65-31.7-17.32-53.98-19-34.47-2.6-103.72.33-119.05 30.12-4.66 9.04-4.32 20.48.98 32.14l.34.72c-13.7 9.65-25.06 22.24-33.26 36.86-.67-11.7-1.03-23.5-1.03-35.1 0-20.04.94-40.28 2.86-60.3 10.7-5.23 19.3-14.08 24.1-24.97 7.2 3.75 15.1 5.7 23.2 5.7 27.8-.04 50.4-22.58 50.4-50.4.1-14.88-6.5-29-18-38.53 18.7-20.6 17.2-52.44-3.4-71.13-17.6-16-43.9-17.5-63.2-3.7C279-1 247.7-6.9 224.7 8.7c-13.74 9.4-21.95 25-21.95 41.6 0 2.2.15 4.4.43 6.57-27.66 2.9-47.67 27.8-44.7 55.4 2.76 25.6 24.37 45 50.12 45h.76v2.26c-.08 27.74 22.34 50.3 50.08 50.4 3.28 0 6.55-.3 9.77-.94-1.6 18.6-2.4 37.5-2.4 56.1 0 11.2.3 22.3 1 33.6-3.7-5.1-8-9.7-12.6-13.9l.3-.4c6.2-9.1 8.4-18.4 6.2-26.5-7.5-27.4-62.9-36.8-79.7-39-13-1.9-26.1-2.4-39.3-1.6-13.8 1-21.8 4.1-25 9.6-6.7 11.5 7.9 22.8 43 50.4l3.8-4.8-3.7 4.8c24.4 19.1 38.5 30.1 54.4 30.1 1.2 0 2.3-.1 3.5-.2 10.8-1.4 20.8-6.1 28.8-13.6 6.6 5.95 12.18 12.95 16.5 20.72 3.2 5.8 5.55 12 6.97 18.5.36 3.4.75 6.8 1.17 10.2h.3v.24H110L159.67 595h256.7l51.56-251.6H284c-.2-4.1-.74-8.17-1.57-12.2-.16-1.46-.3-2.94-.45-4.43 6.05-21.5 19.3-40.25 37.5-53.16 7.36 9.9 17.8 17.1 29.66 20.4 3.07.8 6.22 1.2 9.38 1.2 16.52 0 34.9-10 64.4-26.1 20.2-11 36.16-19.7 46.4-26.6 6.18-4.2 19-12.8 15.53-23.2zm-263.43-59.84c.02-2.6.3-5.2.85-7.75l1.8-8.8-8.8 1.5c-20.84 3.4-40.5-10.7-43.9-31.6-3.4-20.9 10.7-40.5 31.53-43.9 1.9-.3 3.8-.5 5.7-.5h1.8l8.5.4-2.4-8.2c-5.9-20.3 5.72-41.5 25.97-47.4 17.94-5.3 37.04 3.3 45.13 20.1l3.62 7.6 6.06-5.9c14.9-15 39.08-15 54.04-.1s15.02 39.1.13 54c-1.12 1.1-2.3 2.2-3.56 3.1l-6.8 5.43 7.4 4.5c18.1 10.8 24.1 34.2 13.3 52.33-10.8 18.1-34.2 24.1-52.3 13.3-1.3-.73-2.4-1.5-3.6-2.38l-7.3-5.5-2.3 8.72c-5.3 20.4-26.1 32.7-46.6 27.43-16.9-4.3-28.7-19.6-28.7-37l.1.2zm-4.44 135.75c-12 1.1-23.73-7.6-49.1-27.5-19.44-15.3-37.8-29.7-39.6-35 5.02-4 35.05-6.5 71.4 1.6 28.1 6.2 47.27 16.4 50.1 26.7 1.2 4.4-.32 10.2-4.15 15.9-8.6-6.2-17.9-11.4-27.75-15.4l-4.65 11.3c8.5 3.4 16.58 7.8 24.08 13.1-5.7 4.9-12.8 8.1-20.3 9.2zM406.23 583h-236.8l-44.77-227.2H452.8l-46.57 227.26zm10.85-324.52c-34.92 19.06-50.97 27.3-65.07 23.85-8.9-2.5-16.7-7.82-22.3-15.17l1.1-.65c13.1-7.2 27.2-12.3 41.8-15.2l-2.5-11.9c-15.8 3.2-31.1 8.8-45.2 16.7l-1.3.7c-3.3-7.7-3.6-15.2-.8-20.6 7.5-14.6 42.2-24.3 86.5-24.3h2c37.2.3 59.6 7.3 62.2 11.3-1.8 5.9-28.2 20.3-56.1 35.5z"/>
  <path fill="#010101" d="M305.7 105.1c0-16.73-13.56-30.3-30.28-30.3s-30.28 13.57-30.28 30.3 13.56 30.27 30.28 30.27c16.7-.02 30.26-13.57 30.28-30.28zm-30.28 18.07c-9.98 0-18.08-8.1-18.08-18.08 0-10 8.1-18.1 18.08-18.1 9.98 0 18.08 8.1 18.08 18.1.03 9.9-8.04 18.1-18.02 18.1h-.06v-.1zm20.98 274.9c22.97 1.16 43.77 14 55.12 34L312 419.27l-2.96 9.2 54.84 17.74 13.72-56-9.33-2.3-8.44 34.5c-23.92-37-73.34-47.7-110.4-23.7-14 9.1-24.82 22.3-30.94 37.8l11.3 4.5c10.6-27.1 37.5-44.3 66.6-42.7zm-69.77 106.68c13.9 21.2 37.05 34.53 62.36 35.86 1.4.1 2.9.2 4.3.2 32.4 0 61.6-19.6 73.9-49.6l-11.2-4.6c-14.2 34.6-53.7 51.2-88.3 37-13.8-5.6-25.4-15.7-32.9-28.5l39.6 12.5 2.8-9.1-55-17.3-13.2 56 9.3 2.3 8.1-34.4z"/>
</svg>
