<svg xmlns="http://www.w3.org/2000/svg" viewBox="0 0 566.93 113.39">
  <path d="M49.3 75.32c7.12 2.3 13.4 3.45 18.86 3.45 5.4 0 10.88-.85 16.45-2.55 5.6-1.7 9.6-4.04 11.98-7.02 2.4-3 3.6-5.8 3.6-8.45 0-2.84-1.52-6.48-4.54-10.92-3.04-4.47-7.57-8.18-13.58-11.15-1.27 2.35-3 5.07-5.2 8.15-2.18 3.1-4.65 6.3-7.42 9.62-2.74 3.36-5.8 6.64-9.2 9.82-3.36 3.2-7.02 6.2-10.94 9.05zm-9-17.34l-3.08.38c3.36-8.6 6.2-15.13 8.56-19.6 1.08-1.4 2.3-2.8 3.6-4.2 1.3-1.4 2.92-3 4.84-4.77 4.2-3.93 7.02-6.7 8.43-8.34 4.08-.54 7.22-.82 9.4-.82 7.9 0 16.52 2.78 25.83 8.33 9.26 5.58 13.9 12.2 13.9 19.86 0 10.64-6.2 20.1-18.54 28.35C80.86 85.48 67 89.6 51.7 89.6c-6.6 0-12.33-.78-17.22-2.33-4.9-1.5-8.78-3.5-11.6-6-2.84-2.44-5.5-5.75-7.94-9.9 4.85-3.95 8.1-6.5 9.8-7.63 6.68 4.36 12.4 6.54 17.14 6.54 2.22 0 4.45-.53 6.7-1.6 2.22-1.05 5.2-3.52 8.95-7.42 3.5-3.67 10.8-11.54 21.9-23.62-5.43-2.74-10.8-4.1-16.06-4.1-1.44 0-3.5.1-6.12.33-.8.88-6.43 8.9-16.96 24.1zm75.48-17.67l9.45-18.03 5.77-.66-11.85 18.32-3.37.4zm82.55-5.37l13.36-8.17 11.46-2.63c-5.66 24.86-8.48 43.44-8.48 55.74 0 1.08 0 2.06.04 2.9-3.54 2.6-9.4 5.85-17.6 9.7.14-8.47 2-21.4 5.6-38.8-4.94 10.53-12.43 19.6-22.5 27.25-10.06 7.68-20 11.5-29.84 11.5-3 0-5.7-.35-8.1-1.07-2.42-.73-4.36-1.57-5.8-2.55-1.44-1-2.4-1.94-2.9-2.87-.5-.98-.77-2.25-.77-3.8 0-3.8 1.36-7.6 4.04-11.38.87-1.24 2.3-2.97 4.3-5.22 2.02-2.25 4.67-5.1 8-8.54 3.3-3.46 6.76-6.95 10.34-10.5 4.33-4.3 7.2-7.67 8.64-10.1.52-.93.9-1.54 1.16-1.8.2-.3.3-.5.3-.63 0-.25-.38-.5-1.16-.74-.87-.2-1.76-.3-2.63-.3-3.42 0-12.6 3.1-27.54 9.3l3.37-7.68c3.36-2.04 6.3-3.77 8.84-5.2 2.54-1.4 4.96-2.67 7.24-3.8 2.3-1.12 4.1-1.93 5.45-2.42 4.48-1.65 8.56-2.48 12.22-2.48 7.77 0 11.66 1.55 11.66 4.65 0 2.3-1.8 5.63-5.42 9.95-1.13 1.36-2.57 2.9-4.3 4.58-1.75 1.7-3.82 3.57-6.2 5.64-2.38 2.1-5.14 4.37-8.26 6.87-1.93 1.53-3.6 2.88-5.04 4.07-1.4 1.2-2.25 1.9-2.47 2.14-1.06.98-3.1 3.07-6.12 6.24-3 3.15-4.6 4.9-4.8 5.26-.2.36-.3.66-.3.88 0 1.16 1.64 2.96 4.92 5.4 1.7 1.22 3.7 2.14 5.95 2.74 2.26.6 4.8.9 7.64.9 10.08 0 18.36-4.1 24.87-12.3 6.46-8.24 10.1-19.15 10.86-32.73zm26.98 12.24V42.4c3.42-.62 7.57-1.66 12.48-3.13l.15 6.16c2.68-2.74 4.68-4.78 5.96-6.16 6.83 1.27 10.7 3.38 11.57 6.36 1.63-2 3.6-4.1 5.9-6.36 3.24.1 6.03.67 8.34 1.7 2.28 1 3.84 2.3 4.7 3.87.85 1.57 1.28 3.75 1.28 6.54 0 2.14-.16 4.82-.48 8.06-.2 2.26-.3 3.85-.3 4.72 0 .65.07 1.97.2 4-3.08 2.8-7.35 5.7-12.82 8.7.3-1.98.57-5.33.77-10.03l.08-.9c.13-2.37.2-4.23.2-5.57 0-3.6-.36-6.24-1.08-7.94-.75-1.76-1.96-3.42-3.63-5-1.08 2.74-1.77 4.37-2.06 4.92.1 2.07.16 4.8.16 8.18 0 4.18-.1 7.86-.3 11.03-6 1-9.94 1.92-11.85 2.75.03-1.73.04-3.25.04-4.57 0-11.6-1.34-18.87-4.02-21.8l-2.47 4.42.5 19.66c-7.17.7-11.94 1.28-14.32 1.72.7-8.2 1.03-17.05 1.03-26.55zm67.86 1.43l.84 15.22c1.43-1.57 2.83-3.36 4.23-5.33 1.4-2 2.58-3.84 3.55-5.57-1.4-2.03-4.3-3.5-8.62-4.33zm.14-9.33c.4.1 2.73.55 7.02 1.36 3.87.7 6.42 1.23 7.67 1.62 1.2.44 2.35 1.14 3.44 2.1 1.08.94 1.9 2.3 2.43 4.02.54 1.7.82 4 .82 6.93l-.2 11.4c0 1.32.12 2.9.4 4.7-2.42.4-6.82 1.5-13.22 3.34.46-3.54.7-8.4.7-14.6-.44.73-1.72 2.25-3.83 4.57-2.1 2.33-5.14 5.5-9.06 9.54-3.02-.8-5.35-1.57-6.97-2.33-.1-.97-.3-2.5-.62-4.56-.43-3.22-.65-6.14-.65-8.75 0-3.78.8-6.95 2.36-9.54 1.5-2.55 4.75-5.8 9.7-9.8zm27.76-13.6l13.08-4.1-.38 14.7v9.54l6.24-6.45h.46c5.27 1.63 8.75 3.34 10.43 5.16 1.67 1.83 2.5 5 2.5 9.46 0 1.57-.25 4.3-.74 8.2-.28 2.07-.5 5-.7 8.8-3.77 3.12-7.97 6.1-12.63 8.9 1.14-9.17 1.8-15.08 1.98-17.68L339.88 53c-.12-.56-.87-2.82-2.25-6.77-1.78 2.35-3.07 3.94-3.87 4.76v9.78l-.08 2.75c-.08 1.57-.12 2.86-.12 3.83 0 .8.07 2.33.2 4.57-2.76.1-7.37.63-13.86 1.58.4-3.13.65-7.28.8-12.43.14-5.16.26-16.96.36-35.4zm109.92 9.8l-4.76 25.7c2.63-1.54 6.73-4.14 12.3-7.8 1.7-1.14 3.9-2.55 6.53-4.23 2.64-1.68 4.84-3.02 6.57-4.02 3.14-1.84 5.62-3.4 7.43-4.7-1.4-1.62-2.68-2.78-3.87-3.48-1.1-.66-2.8-1.24-5.1-1.73-2.23-.48-4.83-.73-7.82-.73-3.44 0-7.2.33-11.28 1zM402.4 39.7l7.87-12.78c11.9-4.14 22.86-6.2 32.9-6.2 5.38 0 10 .67 13.83 2 3.85 1.38 6.7 2.84 8.52 4.38 1.84 1.6 2.75 3.24 2.75 4.92 0 3.36-2.43 7.5-7.28 12.44-1.66 1.65-3.52 3.25-5.6 4.82-2.1 1.56-4.37 3.08-6.85 4.56-2.5 1.5-5.3 3-8.46 4.5 1.8-.16 3.27-.26 4.32-.26 2.8 0 5.83.4 9.05 1.24 3.2.82 5.8 1.76 7.86 2.8 2.1 1.05 3.55 2.16 4.3 3.32.78 1.18 1.17 2.76 1.17 4.72 0 3.9-1.12 7.68-3.38 11.34-2.25 3.68-5.02 6.46-8.33 8.37-3.3 1.92-6.5 2.87-9.6 2.87-3.93 0-9.05-1.08-15.37-3.25l-1.56-5.94 6.28-11.5c.8 3.05 3 5.48 6.58 7.32 3.54 1.84 7 2.75 10.37 2.75 1.32 0 3.13-.16 5.46-.46-1.3-4.9-4.2-8.55-8.7-10.92-4.5-2.33-9.2-3.5-14.1-3.5-2.43 0-5.6.2-9.53.6-.95 5.1-4.28 9.93-10 14.47-5.67 4.52-10.84 6.78-15.52 6.78-5.5 0-11-5.7-16.48-17.07 1.3-8.34 2.4-13.8 3.33-16.4 4.47 6.78 9.08 11.85 13.82 15.22 4.77 3.38 8.97 5.07 12.58 5.07 1.78 0 3.22-.44 4.33-1.3 1.1-.87 1.85-1.9 2.2-3.12.33-1.2 1.03-5.83 2.1-13.85l2.83-21.83c-5.35.4-12.6 1.68-21.7 3.88zm80.32 8.9l.85 15.22c1.43-1.57 2.83-3.36 4.23-5.33 1.4-2 2.58-3.84 3.56-5.57-1.43-2.03-4.3-3.5-8.64-4.33zm.14-9.33c.4.1 2.74.55 7.02 1.36 3.87.7 6.42 1.23 7.67 1.62 1.2.44 2.37 1.14 3.45 2.1 1.08.94 1.9 2.3 2.43 4.02.54 1.7.82 4 .82 6.93l-.2 11.4c0 1.32.13 2.9.4 4.7-2.4.4-6.8 1.5-13.2 3.34.45-3.54.7-8.4.7-14.6-.45.73-1.73 2.25-3.84 4.57-2.1 2.33-5.13 5.5-9.06 9.54-3-.8-5.34-1.57-6.96-2.33-.1-.97-.3-2.5-.62-4.56-.44-3.22-.66-6.14-.66-8.75 0-3.78.8-6.95 2.36-9.54 1.5-2.55 4.75-5.8 9.7-9.8zm29.78-13.8l7.6-1.95 5.72-1.54-1.63 28.57-.58 11.22c1.92 1.37 4.07 2.75 6.46 4.15v.27c-3.06 2.86-5.65 5.68-7.73 8.47-3.56-.75-6.22-2.3-7.98-4.62-1.77-2.34-2.64-5.5-2.64-9.42 0-1.6.08-4.16.24-7.74.14-3.5.33-12.63.54-27.44zm19.62 24.67l1.04-4.84c5.2-.85 11.14-2.87 17.85-6.04v6.82l-.12 2.9c0 .4 0 .73.04 1.03.03.87.04 2.04.04 3.54 0 .67.02 1.22.05 1.62l.26 6.82c.06 1.47.26 4.77.6 9.9-5.32.93-9.95 1.63-13.87 2.1.36-3.25.54-8.1.54-14.52l-.16-9.7c-1.07.43-2.24.65-3.47.65-.92.02-1.84-.07-2.77-.26zm11.46-28.53c1.94 0 3.62.68 5.04 2.02 1.4 1.35 2.1 3.05 2.1 5.1 0 1.94-.7 3.6-2.1 5-1.4 1.4-3.1 2.1-5.04 2.1-1.93 0-3.6-.7-5-2.1-1.4-1.36-2.1-3.03-2.1-5 0-1.95.7-3.62 2.1-5.02 1.38-1.4 3.04-2.1 5-2.1z"/>
</svg>
