<svg xmlns="http://www.w3.org/2000/svg" viewBox="0 0 282.842 51.976">
  <path fill-rule="evenodd" clip-rule="evenodd" fill="#06A94B" d="M43.578 24.726c-4.92-2.178-11.605-7.072-15.797-11.378C20.31 18.604 6.74 26.25.04 27.148c.742 13.54 11.955 24.29 25.68 24.29 13.912 0 25.237-11.047 25.698-24.847-2.105.94-7.426-1.68-7.84-1.86zm-8.215 13.287c-.298-.04-.76-.08-1.348-.11.04.57.104 1.126.2 1.654l.005.33c-.268-.25-.768-.784-.862-1.16-.07-.28-.128-.57-.18-.86-4.33-.156-13.144.02-18.8 1.496-.04.865-.163 1.61-.41 2.16-.155-.35-.125-.23-.178-.564-.073-.47-.154-.92-.233-1.37-2.086.63-3.632 1.46-4.163 2.57-.17.48-.634.7-1.036.5-.404-.2-.592-.76-.422-1.24.812-1.61 2.78-2.73 5.315-3.48-.83-4.27-1.85-7.92-2.36-11.73-.06-.64.28-1.23.78-1.33.13-.21.32-.37.54-.44 7.93-.31 15.61.01 23.48.82.56-.94 1.18-1.81 1.87-2.56l.29-.26c.42-.35 1.01-.25 1.32.22.31.47.22 1.13-.2 1.48-3.39 2.64-5.07 8.16-4.97 12.83.61.08 1.11.16 1.47.24 2.09.46 3.58.99 5.24 2.05-1.42-.13-5.3-1.28-5.31-1.28zM25.72 0C11.516 0 0 11.516 0 25.72c0 .47.014.934.04 1.396l1.03-.997 2.183-1.64C9.837 19.87 19.677 14.07 24.79 8.74c.15-.305.41-.59.75-.832.965-.92 2.87-1.295 4.525-.833.39.11.737.257 1.03.433.93.39 1.557 1 1.634 1.708 3.81 3.58 3.91 5.99 9.21 10.596 3.59 3.128 5.69 4.31 9.47 6.753.01-.284.02-.566.02-.85C51.44 11.517 39.92 0 25.72 0zM12.845 26.765c.336 2.878 1.33 7.41 1.518 10.887 5.932-1.445 14.237-1.22 18.676-.75-.42-3.74.58-7.94 2.44-11.27-7.64.597-15.01.536-22.65 1.133z"/>
  <path fill="#B6814A" d="M70.873 23.056c3.004.97 5.655 1.456 7.954 1.456 2.272 0 4.587-.36 6.936-1.076 2.362-.72 4.045-1.705 5.048-2.96 1.01-1.262 1.52-2.446 1.52-3.562 0-1.2-.64-2.733-1.91-4.605-1.28-1.89-3.19-3.45-5.72-4.71-.53.99-1.26 2.13-2.19 3.43-.92 1.3-1.96 2.65-3.13 4.05-1.15 1.41-2.44 2.8-3.87 4.14-1.42 1.34-2.96 2.62-4.61 3.81zm-3.8-7.31l-1.293.16c1.417-3.624 2.62-6.38 3.61-8.262.454-.59.965-1.18 1.513-1.77.557-.595 1.235-1.27 2.045-2.016 1.77-1.653 2.96-2.826 3.555-3.514C78.223.117 79.548 0 80.473 0c3.33 0 6.96 1.172 10.886 3.512 3.9 2.353 5.86 5.145 5.86 8.375 0 4.485-2.61 8.47-7.82 11.954-5.22 3.5-11.06 5.24-17.51 5.24-2.79 0-5.21-.33-7.27-.98-2.07-.63-3.7-1.47-4.9-2.53-1.2-1.03-2.32-2.42-3.35-4.18 2.04-1.66 3.42-2.73 4.12-3.21 2.82 1.84 5.23 2.76 7.23 2.76.93 0 1.87-.22 2.82-.67.93-.45 2.18-1.49 3.77-3.13 1.47-1.55 4.56-4.86 9.24-9.96-2.29-1.16-4.55-1.73-6.77-1.73-.61 0-1.48.05-2.58.15-.33.37-2.71 3.75-7.15 10.17zm31.833-7.453L102.89.686l2.434-.278-4.996 7.72-1.422.165zm34.81-2.267l5.635-3.445 4.84-1.1c-2.38 10.49-3.57 18.32-3.57 23.51 0 .46.01.87.02 1.23-1.49 1.1-3.96 2.47-7.41 4.09.06-3.57.85-9.02 2.36-16.36-2.08 4.44-5.23 8.27-9.48 11.49-4.24 3.24-8.43 4.86-12.58 4.86-1.26 0-2.4-.15-3.42-.45-1.02-.3-1.83-.66-2.44-1.07-.6-.41-1.01-.81-1.22-1.21-.22-.41-.33-.94-.33-1.59 0-1.61.57-3.22 1.7-4.81.37-.52.98-1.25 1.82-2.2.85-.95 1.97-2.15 3.37-3.6 1.4-1.45 2.86-2.92 4.37-4.41 1.83-1.82 3.04-3.24 3.65-4.26.22-.39.38-.65.49-.77.09-.12.13-.2.13-.26 0-.1-.16-.21-.49-.31-.36-.08-.74-.13-1.1-.13-1.44 0-5.3 1.3-11.61 3.92l1.43-3.23c1.42-.86 2.66-1.59 3.73-2.19 1.07-.59 2.09-1.13 3.06-1.6.96-.47 1.73-.81 2.29-1.02 1.89-.7 3.61-1.05 5.16-1.05 3.27 0 4.91.66 4.91 1.96 0 .98-.76 2.38-2.28 4.2-.48.57-1.09 1.22-1.82 1.93s-1.6 1.5-2.6 2.38c-1 .89-2.17 1.85-3.48 2.9-.81.65-1.52 1.22-2.12 1.72-.59.51-.95.81-1.04.9-.44.42-1.3 1.3-2.58 2.63-1.26 1.33-1.94 2.07-2.03 2.22-.09.16-.13.28-.13.37 0 .49.69 1.25 2.07 2.28.72.52 1.56.91 2.51 1.16.95.26 2.03.38 3.22.38 4.25 0 7.74-1.73 10.48-5.19 2.72-3.47 4.25-8.07 4.58-13.8zm11.374 5.16v-2.01c1.44-.26 3.19-.7 5.258-1.32l.064 2.597c1.13-1.155 1.973-2.015 2.514-2.598 2.885.536 4.514 1.427 4.88 2.68.69-.842 1.517-1.73 2.485-2.68 1.38.047 2.55.283 3.53.718.96.42 1.62.97 1.98 1.63.36.663.54 1.582.54 2.758 0 .91-.06 2.04-.2 3.4-.08.96-.12 1.63-.12 1.99 0 .28.03.83.09 1.69-1.3 1.19-3.1 2.41-5.4 3.67.13-.83.24-2.25.33-4.23l.04-.37c.06-1 .09-1.78.09-2.35 0-1.51-.15-2.63-.45-3.34-.31-.74-.82-1.44-1.53-2.11-.45 1.16-.75 1.85-.87 2.08.05.88.07 2.03.07 3.45 0 1.77-.05 3.32-.13 4.65-2.53.43-4.19.81-5 1.16.02-.72.02-1.37.02-1.92 0-4.89-.57-7.95-1.7-9.19l-1.04 1.86.21 8.3c-3.03.29-5.04.53-6.04.72.29-3.46.44-7.19.44-11.2zm28.61.604l.355 6.417c.604-.662 1.193-1.416 1.785-2.248.586-.84 1.088-1.62 1.496-2.35-.593-.86-1.81-1.48-3.636-1.83zm.062-3.936c.166.047 1.15.233 2.96.575 1.63.29 2.706.51 3.23.68.515.18.997.48 1.458.88.455.4.795.97 1.025 1.7.227.72.344 1.68.344 2.92l-.09 4.8c0 .56.05 1.23.17 1.99-1.02.16-2.87.63-5.57 1.4.19-1.5.29-3.55.29-6.16-.19.31-.73.95-1.62 1.92-.9.98-2.17 2.32-3.82 4.02-1.27-.34-2.26-.66-2.94-.98-.05-.42-.13-1.06-.27-1.93-.19-1.36-.28-2.59-.28-3.69 0-1.59.33-2.93.99-4.02.63-1.08 1.99-2.45 4.08-4.13zm11.705-5.73l5.513-1.73-.16 6.202v4.018l2.634-2.724h.193c2.22.687 3.69 1.408 4.396 2.174.71.77 1.06 2.102 1.06 3.986 0 .663-.104 1.817-.31 3.46-.12.87-.218 2.11-.294 3.71-1.6 1.314-3.37 2.567-5.33 3.756.48-3.872.76-6.364.83-7.46l-.61-3.866c-.05-.24-.37-1.193-.95-2.858-.75.99-1.3 1.66-1.64 2.007v4.12c0 .05-.01.44-.04 1.16-.04.66-.05 1.2-.05 1.61 0 .34.03.98.08 1.92-1.16.04-3.11.26-5.84.66.17-1.33.28-3.08.34-5.25.05-2.18.1-7.16.14-14.93zm46.348 4.132l-2.006 10.837c1.1-.654 2.83-1.75 5.18-3.293.71-.48 1.64-1.075 2.75-1.783 1.11-.71 2.04-1.274 2.77-1.696 1.32-.77 2.37-1.43 3.13-1.97-.59-.69-1.14-1.17-1.64-1.47-.47-.28-1.19-.52-2.16-.73-.94-.2-2.03-.31-3.29-.31-1.45 0-3.04.14-4.76.43zm-12.045 1.78l3.312-5.388c5.016-1.746 9.64-2.614 13.88-2.614 2.263 0 4.206.282 5.827.847 1.62.58 2.81 1.2 3.59 1.85.77.68 1.16 1.37 1.16 2.08 0 1.42-1.03 3.17-3.07 5.25-.7.7-1.48 1.37-2.36 2.03-.88.66-1.84 1.3-2.89 1.93-1.06.63-2.24 1.26-3.57 1.9.76-.07 1.38-.11 1.82-.11 1.18 0 2.45.17 3.81.52 1.34.35 2.44.74 3.31 1.18.89.45 1.49.92 1.81 1.41.32.5.49 1.17.49 1.99 0 1.65-.47 3.24-1.43 4.79-.95 1.56-2.12 2.73-3.51 3.53-1.4.81-2.75 1.21-4.05 1.21-1.66 0-3.82-.45-6.48-1.37l-.66-2.5 2.65-4.85c.33 1.29 1.26 2.31 2.77 3.09 1.49.78 2.95 1.16 4.37 1.16.55 0 1.32-.06 2.3-.19-.55-2.06-1.78-3.6-3.67-4.6-1.9-.98-3.88-1.47-5.95-1.47-1.02 0-2.36.09-4.02.25-.4 2.16-1.81 4.19-4.22 6.11-2.4 1.91-4.58 2.86-6.55 2.86-2.33 0-4.65-2.4-6.95-7.2.54-3.51 1.01-5.81 1.4-6.91 1.88 2.86 3.83 5 5.83 6.42 2.01 1.43 3.78 2.14 5.3 2.14.75 0 1.36-.18 1.82-.55.47-.36.78-.79.93-1.31.14-.51.43-2.46.89-5.84l1.19-9.2c-2.26.16-5.31.7-9.15 1.63zm33.863 3.754l.36 6.417c.603-.662 1.19-1.416 1.782-2.248.586-.84 1.086-1.62 1.502-2.35-.603-.86-1.816-1.48-3.644-1.83zm.06-3.936c.17.047 1.155.233 2.958.575 1.64.29 2.71.51 3.24.68.51.18 1 .48 1.46.88.46.4.8.97 1.03 1.7.23.72.35 1.68.35 2.92l-.08 4.8c0 .56.06 1.23.17 1.99-1.02.16-2.87.63-5.57 1.4.2-1.5.3-3.55.3-6.16-.18.31-.72.95-1.61 1.92-.88.98-2.16 2.32-3.82 4.02-1.26-.34-2.25-.66-2.93-.98-.04-.42-.12-1.06-.26-1.93-.19-1.36-.28-2.59-.28-3.69 0-1.59.33-2.93 1-4.02.64-1.08 2-2.45 4.09-4.13zm12.556-5.822l3.2-.818 2.41-.65-.69 12.048-.25 4.73c.81.58 1.71 1.16 2.72 1.75v.114c-1.3 1.21-2.39 2.4-3.27 3.577-1.5-.316-2.62-.966-3.37-1.95-.74-.986-1.11-2.313-1.11-3.972 0-.66.03-1.75.1-3.26.06-1.47.14-5.32.23-11.56zm8.27 10.407l.44-2.05c2.19-.36 4.69-1.21 7.52-2.55v2.87l-.05 1.22c0 .17 0 .31.01.44.01.36.02.85.02 1.48 0 .28 0 .52.01.68l.11 2.87c.02.62.1 2.01.24 4.18-2.24.39-4.19.68-5.85.88.15-1.37.23-3.41.23-6.12l-.07-4.1c-.45.18-.95.28-1.47.28-.39 0-.78-.04-1.17-.12zM279.35.4c.818 0 1.527.283 2.125.847.59.57.885 1.287.885 2.156 0 .813-.29 1.52-.88 2.107-.595.588-1.304.882-2.126.882-.815 0-1.524-.295-2.11-.883-.59-.58-.88-1.28-.88-2.11 0-.83.29-1.53.88-2.12.582-.59 1.28-.88 2.11-.88z"/>
  <path fill="#06A94B" d="M75.81 46.128c-.052-.09-.153-.158-.304-.21-.076-.023-.164-.033-.265-.027-.1.01-.2.01-.3.01h-5.79c-.14 0-.26 0-.38-.01-.11 0-.21-.04-.3-.1s-.14-.16-.15-.31c-.01-.14-.02-.3-.02-.48v-2.86c0-.1 0-.2-.01-.3 0-.1.01-.19.03-.26.04-.12.11-.21.2-.26s.21-.08.33-.1c.13-.02.27-.02.41-.02.15.01.3.01.45.01h4.69c.07 0 .13 0 .19.01s.13 0 .19-.01h.11c.04-.01.08-.02.13-.03.05 0 .08-.02.11-.05.09-.05.15-.13.17-.24.03-.07.04-.16.05-.27.01-.11 0-.21-.01-.31s-.03-.19-.06-.28c-.02-.09-.05-.14-.09-.17-.07-.04-.16-.06-.28-.08-.12-.02-.25-.03-.4-.03h-.42c-.14.01-.27.01-.38.01h-4.36c-.06 0-.12 0-.18.01s-.11 0-.16-.01h-.19c-.13-.02-.22-.05-.27-.07-.11-.05-.19-.15-.22-.3-.02-.11-.03-.26-.03-.45s.01-.35.01-.49V36.5c0-.206 0-.4.01-.59.01-.19.08-.32.2-.398.13-.08.33-.11.6-.11.27.01.51.01.71.01h5.08c.23 0 .42-.01.59-.03.17-.01.27-.11.33-.29.03-.1.04-.25.04-.44s-.01-.334-.03-.422l-.08-.114c-.02-.033-.05-.07-.09-.09-.09-.06-.2-.09-.34-.084-.14.007-.28.01-.42.01h-7.82c-.02.01-.05.016-.07.01-.02-.01-.05-.003-.07.01-.14.037-.23.1-.28.19-.05.06-.08.15-.08.263v12.5c0 .12.03.21.08.29.06.1.16.16.29.18.12.02.27.03.45.03h8.04c.12 0 .22-.03.29-.08.07-.04.12-.11.17-.21.02-.05.03-.125.04-.22.01-.097.02-.19.01-.286s-.02-.19-.03-.27c-.01-.09-.03-.16-.05-.19zm9.856-2.292c-.12-.012-.246-.016-.38-.01-.13.007-.254.02-.368.038-.114.02-.19.048-.227.086-.08.063-.14.142-.18.236-.03.095-.06.192-.08.294l-.15.34c-.05.114-.1.222-.17.322-.16.253-.36.458-.6.616-.24.157-.52.287-.85.388-.08.025-.17.035-.25.028-.08-.006-.16.004-.25.028-.04.013-.07.017-.11.01-.03-.006-.06-.003-.09.01-.05 0-.08-.007-.08-.02h-.2c-.09 0-.15-.006-.19-.02-.06-.012-.11-.018-.15-.018-.04 0-.09-.007-.15-.02-.14-.05-.26-.1-.38-.15-.12-.05-.23-.108-.35-.17-.33-.216-.58-.472-.76-.77-.18-.295-.34-.645-.48-1.05-.02-.1-.04-.208-.06-.322-.02-.113-.04-.22-.06-.32 0-.127 0-.216-.02-.267-.01-.062-.01-.126 0-.19.02-.06.02-.125 0-.188-.02-.05-.03-.132-.02-.246.01-.11.02-.19.03-.24v-.15c.03-.06.04-.13.03-.21-.01-.07 0-.14.01-.21l.11-.51c.04-.14.08-.27.12-.39.04-.12.08-.23.13-.35.14-.33.34-.61.59-.85s.54-.43.87-.57c.09-.02.17-.04.25-.05.08-.01.16-.03.25-.05.19-.06.43-.09.72-.08.29.01.52.04.7.09.13.04.25.08.36.13.12.05.22.1.32.16.31.19.55.45.74.78.06.1.12.22.15.36.04.14.11.24.21.32.09.06.2.1.32.1.13.01.26.01.4.01.05 0 .1.01.15.01.05.01.1 0 .15-.01s.1-.01.14-.01c.04.01.08 0 .11-.03.09-.05.15-.1.19-.17.03-.07.03-.16.02-.26-.01-.1-.03-.18-.05-.24-.12-.36-.25-.67-.42-.92-.36-.57-.86-.99-1.48-1.28s-1.4-.42-2.34-.4l-.28.03-.26.03c-.18.04-.35.07-.51.1-.16.03-.32.07-.45.13-.65.27-1.17.6-1.55 1.01-.38.41-.7.94-.96 1.59-.08.19-.13.39-.17.61-.04.21-.08.43-.13.64-.02.08-.03.16-.02.25 0 .09-.01.18-.03.27-.02.05-.02.11-.01.15 0 .06 0 .11-.01.18-.02.06-.02.15-.02.27 0 .11 0 .2.02.26v.19c.02.07.03.16.02.25s0 .17.03.25c.01.05.02.1.02.15 0 .05 0 .1.02.15.03.15.07.31.09.46.02.15.07.29.13.43l.15.38c.05.13.11.24.17.34.25.41.53.75.83 1.03.3.28.67.52 1.13.72.14.06.28.12.44.15.15.04.31.09.47.14l.46.06h.09c.08.03.16.04.258.03.1 0 .2-.01.3-.01h.17c.05-.01.1-.01.15 0 .05.02.1.01.15-.02.14-.02.28-.04.42-.04.14-.01.273-.04.413-.09.13-.04.25-.07.36-.1.12-.03.22-.07.32-.12.41-.18.75-.41 1.03-.7.29-.29.52-.62.71-1 .09-.16.16-.33.22-.5l.18-.54c.03-.11.03-.22.01-.32-.02-.1-.06-.18-.14-.23-.05-.03-.13-.06-.25-.07zm11.267-1.96c.006-.07.003-.135-.01-.198-.037-.164-.068-.325-.094-.483-.03-.157-.06-.306-.1-.444-.05-.14-.1-.27-.13-.39-.04-.12-.09-.25-.15-.38-.33-.77-.87-1.39-1.61-1.87-.75-.48-1.68-.71-2.81-.7-.08.02-.16.02-.24.03-.08.01-.17.01-.26.01-.18.05-.36.09-.53.11-.18.02-.34.06-.5.13l-.51.22s-.33.16-.48.26c-.4.25-.73.57-1 .94-.27.38-.5.8-.69 1.26-.07.14-.11.29-.14.44-.03.16-.07.31-.11.46-.01.07-.02.12-.03.16l-.03.16c-.03.09-.03.18-.02.27.01.09.01.18-.02.26-.02.08-.04.19-.04.35s0 .27.02.33c.01.07.01.12.01.16v.16c.02.1.04.21.05.31 0 .11.02.21.04.32.01.05.01.09.01.13s0 .07.02.12c.02.14.05.27.08.4s.08.25.14.38c.24.58.54 1.07.91 1.48.36.4.83.73 1.4.98.15.07.31.12.47.17.16.05.33.1.51.15l.45.06h.11c.04.01.08.02.13.01s.1 0 .15.01c.04.01.1.02.2.02s.17-.01.22-.02c.07 0 .15 0 .23-.01l.24-.03.48-.07c.16-.02.31-.06.44-.11.64-.21 1.18-.52 1.63-.93.44-.41.79-.92 1.06-1.52.06-.14.11-.29.15-.45.04-.16.08-.33.13-.49.02-.08.04-.15.05-.23s.02-.15.05-.23l.03-.27.03-.27v-.19c.01-.06.02-.17.02-.33s-.02-.27-.04-.35c-.01-.06-.02-.13-.01-.2zm-1.676 1.278c-.05.177-.085.35-.104.52-.02.17-.06.332-.123.483-.177.43-.398.802-.663 1.117s-.612.562-1.042.738c-.088.038-.183.066-.284.086-.1.02-.2.04-.3.066-.05.025-.1.034-.15.028-.05-.007-.1-.003-.15.01-.06.024-.15.03-.27.02-.12-.014-.2-.026-.23-.04-.06-.012-.12-.015-.18-.01-.05.008-.11-.002-.18-.027-.14-.038-.27-.078-.39-.123-.12-.044-.23-.098-.33-.16-.06-.038-.12-.07-.17-.096-.05-.024-.11-.057-.17-.095-.25-.17-.46-.39-.63-.66-.17-.26-.32-.55-.44-.85-.05-.1-.08-.21-.1-.33l-.06-.37-.04-.23c-.02-.1-.04-.21-.04-.34v-.38c0-.06 0-.12-.01-.17 0-.05 0-.09.01-.13 0-.11.01-.19.02-.24.03-.14.05-.27.06-.4.01-.13.04-.26.08-.39.14-.4.31-.75.5-1.06.19-.3.44-.56.74-.77.06-.05.13-.1.21-.15.08-.05.16-.09.25-.11.1-.05.21-.09.32-.12.11-.03.22-.06.35-.09l.34-.05h.34c.12 0 .22.01.32.04.1.02.2.05.3.06s.2.05.29.09c.77.32 1.33.89 1.69 1.71.04.09.07.18.1.28.03.1.06.2.1.31.09.34.13.76.13 1.25 0 .1.01.21.01.32s0 .22-.03.31zm18.312-9.203c-.09-.05-.2-.07-.33-.07h-9.74c-.03.02-.05.02-.08.01-.03 0-.05 0-.08.01-.05.02-.1.03-.14.05-.05.02-.08.05-.11.09-.04.04-.07.11-.1.21-.03.11-.04.21-.05.33-.01.11-.01.23.01.34.01.11.03.2.07.25.02.04.06.07.09.1l.11.08c.1.04.25.06.44.05.19-.01.37-.01.52-.01h2.08c.25 0 .49.01.71.02.22.01.36.12.42.32.04.12.05.26.05.45-.01.18-.01.34-.01.48v9.79c0 .17 0 .32.01.46s.04.26.12.36c.06.09.18.13.37.13h.52c.1 0 .19 0 .28-.01.08 0 .16-.02.22-.04.12-.06.2-.17.22-.32.02-.15.03-.32.03-.51v-9.83c0-.14-.01-.29-.02-.47-.02-.17 0-.32.04-.43.03-.12.09-.2.17-.26s.16-.09.27-.11c.1-.02.23-.02.36-.02.13.01.27.01.4.01h2.67c.17 0 .31-.03.41-.09.06-.05.1-.11.12-.17.02-.06.04-.15.06-.25v-.23c0-.16-.01-.3-.03-.4-.02-.1-.08-.19-.18-.25zm5.98 3.45c-.07.02-.13.02-.21.03l-.23.03c-.14.04-.27.08-.4.11s-.25.08-.36.15c-.18.08-.37.19-.57.34-.21.16-.36.3-.48.44l-.12.12c-.07.08-.14.18-.23.3s-.21.18-.35.18l-.06-.05c-.01-.01-.02-.03-.04-.05-.05-.1-.08-.22-.08-.35v-.38c0-.12-.02-.23-.05-.34-.03-.11-.1-.18-.2-.22-.06-.02-.15-.04-.26-.05-.11-.01-.23-.01-.34-.01-.12.01-.22.03-.31.05-.1.03-.16.07-.2.12-.06.09-.1.19-.11.31-.01.12-.01.25-.01.39v8.01c0 .14 0 .28.01.41 0 .13.04.24.1.33.02.04.06.07.12.09.06.02.12.04.18.07h.34c.15 0 .29 0 .43-.02.13-.01.23-.06.29-.15.06-.07.09-.16.08-.26-.01-.1-.01-.22.01-.36s.01-.28.01-.43v-2.8c0-.17 0-.36-.01-.56-.01-.19.01-.37.05-.52.01-.06.02-.12.01-.19 0-.06 0-.12.01-.19.04-.15.07-.29.1-.44s.06-.28.11-.42c.16-.36.36-.69.58-.97.23-.28.52-.51.89-.67.14-.06.29-.11.45-.15.15-.04.32-.07.5-.11.14-.04.28-.06.41-.06.14-.01.24-.06.32-.16.06-.08.09-.17.09-.28v-.36c0-.27-.02-.49-.06-.63-.04-.14-.21-.22-.5-.22zm10.37 9.13c0-.04-.02-.07-.04-.11-.05-.1-.13-.16-.23-.18-.1-.02-.21-.05-.32-.1-.1-.04-.19-.1-.25-.19-.07-.1-.1-.23-.12-.39s-.02-.33-.02-.51v-4.19c0-.36-.01-.71-.03-1.05-.02-.33-.09-.63-.2-.88-.27-.6-.73-1.02-1.38-1.23-.66-.21-1.43-.31-2.32-.3-.02.03-.09.04-.21.03-.12 0-.2 0-.25.01-.14.03-.28.05-.41.06-.13.02-.26.03-.39.06-.54.15-1 .35-1.36.6s-.67.59-.91 1.03c-.06.14-.12.28-.16.43-.04.15-.08.3-.12.47-.03.1-.03.2 0 .29.02.09.06.15.11.19.05.04.13.07.25.09.12.02.24.03.37.03.12 0 .25-.01.37-.02.12-.02.2-.04.25-.08.08-.06.14-.15.18-.26.03-.11.06-.22.1-.32.06-.14.14-.27.22-.39.08-.12.17-.22.27-.29.2-.14.41-.25.62-.32.15-.05.33-.08.55-.11.21-.02.44-.04.66-.04.23 0 .45.02.66.04.21.03.39.07.54.13.26.11.47.24.61.42s.25.42.33.72c.05.19.05.36 0 .52-.05.16-.12.29-.19.39-.17.23-.39.37-.67.43s-.58.13-.89.2c-.1.03-.2.04-.28.05-.09.01-.18.02-.27.05-.1.03-.19.04-.28.04-.09 0-.17.02-.26.04-.19.04-.38.07-.57.1s-.38.07-.55.12c-.47.14-.9.3-1.29.48s-.7.45-.93.82c-.08.11-.14.24-.19.38l-.15.41-.03.22-.03.2v.4c0 .4.06.73.17 1.01.15.38.35.67.58.88.23.21.54.39.92.56.09.04.18.06.28.08.1.02.21.04.31.07.04.01.08.02.11.01s.07 0 .12.01c.05.03.11.04.17.04.06 0 .13.01.19.02h.17c.12.02.26.02.4 0h.14c.04 0 .1-.01.16-.02l.43-.06s.28-.04.4-.07c.21-.06.41-.13.6-.22.19-.08.37-.17.53-.27.12-.08.23-.17.35-.27.12-.1.25-.17.39-.21.05-.01.09-.01.13.02.03.02.06.05.08.07.08.08.14.17.19.29.05.12.11.22.17.31.1.14.29.26.56.35s.54.11.82.05c.07-.03.15-.04.22-.04s.13-.01.19-.04c.12-.06.23-.16.3-.29s.1-.3.06-.5c-.01-.06-.02-.11-.02-.15zm-2.57-2.56c-.01.24-.05.44-.13.62-.14.37-.34.66-.6.87-.26.22-.58.4-.94.55-.09.04-.18.07-.28.08l-.3.06c-.08.03-.16.04-.23.03s-.15.01-.23.03c-.09.03-.2.04-.33.03-.14 0-.25-.02-.34-.04-.06-.01-.13-.02-.19-.02s-.13 0-.19-.02c-.19-.06-.37-.14-.53-.23-.17-.09-.3-.21-.4-.35-.06-.09-.12-.18-.16-.29-.05-.11-.07-.22-.07-.35-.01-.28.01-.52.08-.71.06-.2.16-.36.28-.5.12-.14.28-.25.45-.35.17-.09.36-.17.56-.23l.27-.07.28-.07c.18-.05.39-.07.61-.08.22 0 .42-.03.61-.08.05 0 .09-.01.14-.01.04-.01.08-.01.12-.01l.38-.08c.12-.02.24-.05.34-.07.05-.02.11-.03.17-.03s.11-.01.13-.04c.14 0 .23.01.27.04.09.06.14.15.15.26.01.12.02.24.02.38 0 .26 0 .5-.01.73zm12.35-10.06c-.2 0-.39 0-.56.01-.03 0-.06.01-.1.01-.04.01-.07.01-.1.01-.1.03-.17.08-.22.17-.06.1-.1.26-.1.48v2.78c0 .14 0 .3.01.47s-.01.32-.05.44c-.01.05-.03.09-.05.12l-.07.1c-.14.03-.25.01-.33-.06l-.24-.2c-.16-.11-.32-.21-.49-.3s-.35-.17-.54-.25c-.13-.06-.26-.1-.4-.12-.14-.02-.28-.05-.42-.08-.09 0-.16-.01-.21-.02-.1-.02-.25-.04-.45-.04s-.34.02-.45.04h-.19c-.09.03-.18.05-.26.06l-.26.04c-.28.08-.54.17-.77.27-.23.1-.46.23-.67.38-.37.26-.68.57-.94.96-.26.39-.47.82-.64 1.3-.04.11-.07.23-.1.35-.03.12-.06.24-.09.37-.01.06-.02.12-.02.17 0 .05-.01.11-.02.17-.03.09-.04.18-.03.27s-.01.19-.03.28v.21c-.03.06-.04.15-.04.25s.01.18.03.25v.19c.01.06.02.13.01.2s0 .14.03.2c.01.06.02.13.02.19s.01.13.02.19c.04.13.07.25.08.37.02.12.05.24.1.35.22.71.54 1.3.94 1.77.4.48.93.85 1.59 1.13.23.1.49.17.79.22.3.05.61.07.91.06.31 0 .61-.03.91-.08.29-.05.56-.13.78-.23.25-.1.51-.25.76-.44.08-.06.15-.13.22-.19s.17-.09.29-.07l.07.07s.04.04.05.07c.04.09.06.18.07.27 0 .09.03.16.08.23.04.07.11.12.23.15.05.02.11.03.18.03.06-.01.14-.01.21-.01.15 0 .3 0 .44-.01s.25-.06.31-.14c.06-.1.09-.23.09-.38V34.5c0-.15-.03-.28-.09-.38-.07-.1-.21-.154-.4-.16zm-1.03 8.87c-.02.08-.02.16-.01.23 0 .08 0 .15-.01.23-.02.05-.02.1-.02.14 0 .05-.02.09-.04.15-.04.14-.07.28-.1.42-.03.14-.07.28-.14.42-.18.42-.4.76-.65 1.03s-.59.5-1.01.68c-.09.04-.18.07-.28.09-.1.02-.2.04-.3.07-.09 0-.15.01-.19.02h-.33c-.06 0-.11 0-.17-.02-.06-.02-.13-.03-.2-.02-.07.02-.14.01-.2-.02-.14-.04-.27-.07-.38-.11-.12-.04-.23-.09-.34-.15-.37-.2-.67-.46-.91-.77s-.43-.69-.57-1.14c-.03-.09-.05-.18-.07-.27l-.06-.26c0-.09-.01-.15-.02-.19-.03-.11-.04-.23-.04-.36v-.41c0-.06 0-.13-.01-.21-.01-.07 0-.14.03-.21 0-.05 0-.1.01-.14.01-.04.01-.09.01-.14.02-.13.05-.28.07-.42s.05-.29.1-.43c.15-.44.35-.83.6-1.16.24-.33.57-.59.97-.77.1-.04.2-.07.31-.1s.21-.05.31-.07c.06 0 .12 0 .17-.01l.17-.03h.35c.12 0 .23.01.33.04.15.02.29.05.42.08.13.04.26.08.39.15.37.16.67.39.91.68.24.29.44.63.59 1.01.04.09.07.18.08.27l.06.29c.04.1.06.21.07.33.01.12.03.24.05.35v.29c.03.07.04.15.04.26s-.01.2-.03.26zm4.33-7.04c.09.06.19.1.32.1h.61c.07 0 .13-.01.2-.04.16-.06.25-.19.25-.39s.01-.41.01-.64v-.33c0-.11-.02-.2-.06-.27-.06-.14-.19-.22-.38-.23-.19-.01-.39-.02-.61-.02-.03.01-.05.02-.08.01s-.06 0-.09.01c-.15.05-.25.13-.3.23-.04.08-.06.17-.06.29v.32c0 .19 0 .38.01.58s.06.33.16.41zm1.4 2.36c0-.12-.03-.22-.1-.29-.07-.1-.18-.15-.35-.16-.17-.01-.34-.01-.51-.01-.03.01-.06.02-.09.01s-.06-.01-.09-.01c-.08.03-.14.05-.21.06-.06.01-.11.05-.15.12-.06.08-.09.18-.09.31v8.77c0 .12.02.22.08.29.06.11.15.16.27.18.12.02.26.03.43.03h.28c.1-.02.19-.05.27-.06.07-.02.13-.07.17-.14.06-.07.09-.18.08-.31-.01-.13-.01-.26-.01-.39v-8.4zm6.55 8.06c-.05-.07-.13-.12-.24-.14-.11-.02-.23-.02-.35-.02h-.25c-.04-.01-.08-.01-.13-.01-.05.01-.09 0-.13-.01-.14-.02-.26-.06-.36-.09-.11-.03-.19-.1-.25-.2-.12-.16-.17-.4-.16-.71s.01-.6.01-.88v-3.75c0-.12-.01-.25-.01-.39s-.01-.26.01-.38c.01-.12.03-.22.07-.31s.1-.15.19-.19c.1-.03.22-.05.36-.05s.28.01.43.01c.14.01.28.01.42 0 .13 0 .23-.04.31-.1.07-.06.12-.15.13-.27.01-.12.02-.25.02-.39v-.18c0-.06-.02-.12-.04-.17-.04-.07-.11-.15-.23-.23-.09-.03-.23-.05-.43-.04-.2.01-.38.01-.51.01h-.18c-.06 0-.12-.01-.18-.02-.18-.05-.29-.16-.34-.34-.03-.07-.04-.17-.03-.27s.01-.21.01-.31v-1.1c0-.14-.01-.27-.01-.4-.01-.13-.04-.23-.11-.31-.08-.1-.21-.15-.4-.16-.19 0-.38-.01-.57-.01-.03 0-.06.01-.09.01-.03.01-.07.01-.1.01-.14.07-.23.15-.28.25-.03.08-.04.17-.04.28v1.81c0 .12-.02.21-.04.29-.07.11-.15.2-.27.27-.15.05-.34.06-.56.04s-.4-.01-.54.04c-.13.06-.2.15-.23.27-.03.12-.04.27-.04.45 0 .07.01.13.01.19.01.06.02.12.05.17.04.12.11.19.22.22s.24.05.41.05h.3c.05.03.1.03.15.02.05-.01.1-.01.15 0 .15.05.24.12.27.19.03.08.06.2.1.36v4.96c0 .44.01.86.03 1.24.03.39.13.71.3.96.13.19.28.32.47.4.19.08.4.15.66.21.06 0 .12 0 .18.01l.18.03h.23c.06.02.13.02.21.01.08 0 .15-.01.23-.01.1 0 .21.01.34.01.12.01.24 0 .34-.02.14-.04.23-.1.28-.19.04-.05.06-.12.07-.21.01-.09.01-.19 0-.29-.01-.1-.02-.19-.04-.29s-.04-.16-.07-.2zm3.62-8.05c0-.12-.03-.22-.1-.29-.07-.1-.18-.15-.35-.16-.17-.01-.34-.01-.51-.01-.03.01-.06.02-.09.01s-.06-.01-.09-.01c-.08.03-.15.04-.21.06-.07.01-.12.05-.15.11-.06.08-.1.18-.1.31v8.77c0 .12.02.22.07.3.06.1.15.16.27.18.12.02.26.03.42.03h.28c.1-.02.19-.05.26-.06.07-.02.13-.07.17-.14.06-.07.09-.18.08-.31-.01-.13-.01-.26-.01-.38v-8.4zm-1.4-2.36c.09.06.19.1.32.1h.61c.07 0 .13-.01.2-.04.16-.06.25-.19.25-.39s.01-.41.01-.64v-.33c0-.1-.02-.2-.06-.27-.07-.13-.19-.21-.38-.22-.19-.01-.39-.02-.61-.02-.03.02-.06.02-.09.01-.03 0-.06 0-.09.01-.15.05-.26.13-.31.23-.04.08-.06.17-.06.29v.32c0 .19 0 .39.01.58 0 .2.06.33.16.41zM166 41.89c0-.07 0-.136-.01-.2-.04-.163-.07-.324-.1-.48-.03-.16-.06-.308-.1-.446-.05-.14-.095-.27-.133-.395-.034-.12-.09-.25-.15-.38-.33-.77-.86-1.39-1.61-1.87s-1.68-.72-2.8-.7c-.074.01-.153.02-.235.02-.08 0-.167.01-.256.01-.177.05-.35.08-.53.1-.177.02-.34.06-.49.12l-.51.22c-.168.07-.325.15-.477.26-.39.25-.72.56-1 .94-.27.37-.5.79-.69 1.26-.07.14-.11.28-.15.43-.03.15-.07.3-.11.45l-.03.16-.03.16c-.03.09-.04.18-.02.26.01.09 0 .18-.02.26-.03.08-.04.2-.04.35s0 .27.02.34c.01.06.02.12.02.16v.16c.02.1.04.21.04.31 0 .11.02.21.04.31.01.05.02.09.01.12s0 .07.03.12c.02.14.05.27.08.4s.07.25.14.38c.24.58.54 1.07.91 1.48s.83.73 1.4.99c.15.06.31.12.47.17.16.05.33.1.51.15l.45.06h.11c.03.01.08.01.13.01.05-.01.1-.01.15.01.04.01.1.02.2.02s.16-.01.22-.02c.07 0 .15-.01.23-.01l.23-.03.48-.08c.15-.03.3-.06.44-.12.64-.21 1.19-.52 1.63-.93.44-.41.79-.92 1.06-1.52.06-.14.11-.29.15-.45.04-.17.08-.33.13-.5.02-.07.04-.15.04-.23 0-.08.02-.15.05-.23.01-.1.02-.19.02-.27s.02-.17.03-.27v-.19c.01-.07.02-.18.02-.33s-.02-.28-.04-.36c-.01-.07-.02-.13-.01-.2zm-1.68 1.277c-.05.18-.09.35-.11.52-.02.17-.06.335-.123.486-.174.43-.394.8-.66 1.114-.264.316-.61.56-1.04.74-.09.037-.18.065-.283.085-.1.02-.2.04-.302.066-.05.027-.104.036-.15.03-.05-.007-.1-.003-.15.01-.065.024-.157.03-.277.02s-.2-.026-.238-.04c-.06-.012-.12-.015-.18-.01-.053.008-.113-.002-.18-.027-.14-.04-.27-.08-.39-.12s-.23-.1-.33-.16c-.06-.04-.12-.07-.17-.1-.05-.02-.104-.06-.17-.09-.25-.17-.46-.39-.632-.66-.17-.27-.32-.55-.444-.85-.05-.1-.08-.21-.1-.33-.02-.12-.04-.24-.07-.37l-.03-.23c-.03-.1-.04-.21-.04-.34v-.38c0-.06 0-.12-.01-.17-.01-.05 0-.09.01-.13 0-.11.01-.19.02-.24l.06-.4c.01-.13.04-.26.07-.39.14-.4.31-.75.5-1.06.19-.3.44-.56.74-.77.06-.05.13-.1.21-.15.08-.05.16-.09.25-.11.11-.05.21-.09.32-.12s.23-.06.35-.09l.34-.05h.34c.11 0 .22.02.32.04s.2.05.31.07c.1.02.19.05.28.09.77.32 1.33.89 1.69 1.71.04.08.07.18.1.28.03.1.06.2.1.3.09.34.13.76.13 1.25 0 .1.01.21.01.32.01.12 0 .22-.03.31zm11.59-3.462c-.04-.15-.08-.3-.13-.443-.045-.15-.104-.28-.18-.41-.29-.48-.676-.84-1.155-1.08-.48-.24-1.12-.35-1.917-.32h-.19c-.06 0-.123.005-.186.017l-.35.06c-.12.01-.23.03-.33.07-.24.07-.45.17-.63.27-.185.1-.36.22-.54.35-.1.07-.2.18-.295.3-.095.12-.218.18-.37.17-.074-.05-.125-.12-.15-.19-.05-.17-.07-.32-.057-.45.014-.14-.05-.25-.19-.33-.036-.03-.1-.05-.2-.06-.09-.02-.19-.02-.29-.02-.1 0-.2 0-.294.02s-.17.02-.22.04c-.09.02-.15.07-.19.15-.05.06-.078.15-.078.26v8.82c0 .17.05.29.15.36.064.05.14.08.23.09.087.01.18.02.28.02.166 0 .327-.01.485-.01.156-.01.267-.06.33-.16.06-.09.094-.21.094-.36V42.4c0-.06-.007-.12-.01-.17-.01-.05-.007-.095.01-.13v-.4c.02-.05.03-.103.02-.16-.017-.057-.01-.117.02-.18.02-.1.04-.204.05-.31s.04-.21.076-.31c.2-.63.522-1.105.965-1.42.05-.027.097-.05.135-.077.035-.026.08-.05.13-.077.125-.07.26-.133.406-.18s.3-.08.46-.12c.05-.014.09-.02.13-.01.04.006.08-.004.13-.03.05-.013.14-.02.27-.03.13-.004.23 0 .29.01.07.027.15.04.23.05.08.006.16.02.24.047.27.088.5.21.7.37.2.157.36.36.46.614.1.24.15.53.17.86.01.34.02.677.02 1.018v5.13c0 .14.03.25.09.34.06.1.17.15.32.16.15 0 .31.01.47.01.07 0 .15-.01.22-.01.07-.01.13-.027.2-.05.16-.06.25-.2.25-.42.01-.216.01-.43.01-.646V41.3c0-.29-.01-.575-.02-.85-.02-.28-.05-.54-.12-.78zm11.17 6.838c0-.03-.017-.07-.04-.11-.05-.1-.128-.16-.23-.18-.102-.02-.21-.05-.322-.1-.1-.037-.18-.1-.245-.19-.063-.1-.1-.23-.113-.395-.012-.163-.02-.334-.02-.51v-4.19c0-.366-.01-.72-.03-1.052-.02-.333-.082-.627-.195-.88-.27-.605-.73-1.016-1.388-1.23s-1.426-.315-2.31-.303c-.025.024-.095.034-.21.027-.11 0-.194 0-.244.01-.14.03-.275.05-.408.06s-.268.03-.39.06c-.547.15-1 .35-1.367.597s-.67.59-.91 1.03c-.063.14-.12.28-.16.426-.046.15-.09.3-.125.467-.02.1-.02.195 0 .28.03.09.067.15.118.19.05.04.14.07.26.088.12.02.25.03.37.03.13 0 .25-.01.37-.03.12-.02.21-.05.26-.087.09-.06.15-.15.18-.26.03-.11.07-.22.11-.32.06-.14.14-.27.22-.39.08-.12.17-.21.27-.29.2-.14.41-.24.63-.32.15-.05.33-.09.55-.11s.44-.03.66-.03c.23 0 .45.01.66.04.21.02.39.07.54.13.27.1.47.24.62.42.14.18.25.42.33.72.05.19.05.36 0 .52-.05.16-.11.29-.19.39-.16.23-.38.37-.66.42-.28.06-.57.12-.89.2-.1.02-.2.04-.28.05-.09 0-.18.02-.26.04-.1.03-.2.04-.28.04s-.17.02-.25.04c-.19.04-.38.07-.57.1s-.37.06-.55.11c-.46.14-.89.3-1.28.47-.39.18-.7.45-.92.82-.07.11-.14.24-.19.38l-.15.42c-.01.08-.02.15-.02.22l-.03.2v.4c0 .39.06.73.17 1 .15.38.35.68.58.89.24.21.54.39.92.56.09.04.19.06.29.08l.31.07c.03.02.07.02.1.01.03 0 .07 0 .12.01.05.03.11.04.17.04s.13 0 .19.02h.17c.13.02.26.02.4 0h.14c.05 0 .1-.01.16-.02.14-.03.29-.05.43-.06.15-.01.28-.04.41-.07.22-.06.42-.13.61-.21.19-.08.37-.17.53-.27.12-.07.23-.16.35-.26.12-.1.25-.17.39-.21.05-.01.09-.01.13.02s.06.05.08.08c.07.08.14.18.19.3.05.12.1.22.17.31.1.14.28.25.56.35s.54.11.82.04c.07-.02.15-.04.22-.04s.13-.01.2-.03c.12-.06.22-.16.3-.3.07-.13.09-.3.05-.5-.01-.06-.02-.11-.02-.15zm-2.57-2.56c-.007.23-.05.438-.123.615-.14.365-.333.655-.59.87s-.57.397-.94.55c-.09.037-.18.06-.276.075s-.19.03-.29.057c-.07.026-.15.036-.23.03-.07-.008-.15.002-.22.027-.09.02-.2.03-.33.026s-.24-.02-.33-.045c-.06-.017-.12-.02-.19-.02s-.12-.01-.18-.02c-.19-.06-.36-.14-.53-.24s-.29-.21-.39-.35c-.06-.09-.11-.19-.16-.295s-.06-.225-.06-.35c-.01-.28.01-.516.08-.71.06-.197.16-.364.29-.504.13-.14.28-.26.46-.35.18-.1.37-.17.57-.24l.28-.07.28-.07c.19-.05.4-.08.62-.09.22-.01.43-.04.62-.09.05 0 .1-.01.14-.01.05-.01.09-.01.13-.01l.38-.08s.24-.05.34-.08c.05-.03.1-.04.17-.04.06 0 .1-.02.13-.04.14 0 .23.01.26.04.09.06.14.15.15.26s.02.24.02.38c0 .25 0 .5-.01.73zm5.71-9.933c-.09-.09-.226-.13-.41-.13h-.52c-.024.014-.053.017-.085.01-.03-.006-.06 0-.09.01-.14.05-.235.114-.286.19-.06.09-.09.21-.09.37 0 .157.01.306.01.444V46.4c0 .164 0 .322.01.474 0 .15.04.276.1.38.06.072.16.114.28.12.12.007.26.01.4.01h.26c.1-.025.18-.045.25-.058.07-.012.12-.05.16-.113.06-.1.1-.24.1-.42V34.82c0-.15-.01-.3-.01-.445-.01-.145-.04-.262-.11-.35zm18.69-.02c-.09-.06-.2-.094-.33-.1-.13-.006-.27-.01-.408-.01-.06 0-.127 0-.19-.01-.06-.005-.12 0-.17.01h-.095c-.06.026-.12.045-.18.06s-.1.046-.12.1c-.105.11-.15.29-.136.53.02.24.02.46.02.66v2.97c0 .204 0 .44.01.71.01.27-.03.47-.12.6-.05.075-.14.126-.26.15-.12.025-.27.04-.42.05-.16.004-.32.004-.48 0-.16-.01-.31-.01-.43-.01h-4.92c-.1-.027-.18-.05-.25-.078-.07-.028-.13-.08-.18-.15-.02-.03-.04-.067-.04-.118-.01-.05-.02-.095-.03-.133v-.15c-.01-.05-.02-.11-.01-.18.01-.07.01-.13.01-.2v-3.54c0-.2 0-.41.01-.63.01-.22-.04-.39-.14-.5-.07-.1-.23-.14-.48-.14-.24.01-.45.01-.63.01-.02.02-.05.02-.07.01-.03 0-.05 0-.08.01-.14.04-.23.1-.28.19-.06.09-.09.21-.08.36.01.15.01.3.01.44v11.51c0 .17.01.35.01.52.01.17.06.29.16.35.07.05.15.08.26.08.11.01.23.01.35.01.2 0 .39-.01.57-.02s.3-.09.36-.23c.03-.06.04-.14.05-.23.01-.09.01-.18.01-.28v-3.81c0-.1 0-.22-.01-.37-.01-.14-.01-.28 0-.42.01-.14.02-.26.04-.38.02-.11.05-.2.09-.26.05-.07.11-.11.18-.13.07-.02.16-.04.26-.06h6.04c.09 0 .17.02.23.04.11.05.19.11.24.17.04.06.07.15.08.26.01.12.02.24.02.36v3.92c0 .22-.01.46-.02.72-.01.27.03.46.13.59.06.09.17.13.33.13h.47c.05 0 .1 0 .16.01.05.01.11 0 .16-.01.07-.02.14-.04.19-.04.05 0 .1-.02.15-.05.1-.06.15-.16.17-.3.01-.14.02-.3.02-.47v-11.7c0-.15-.01-.31-.01-.47-.01-.16-.06-.27-.15-.34zm11.79 7.87c.01-.07.01-.133-.01-.2-.03-.16-.064-.32-.09-.48-.024-.156-.056-.305-.093-.443-.05-.14-.095-.27-.133-.394-.04-.123-.09-.25-.15-.375-.33-.77-.868-1.398-1.61-1.877s-1.68-.71-2.806-.7l-.238.03c-.08.01-.165.01-.254.01-.178.05-.355.09-.53.11-.178.02-.34.06-.49.13l-.51.22c-.168.07-.325.16-.477.26-.39.25-.72.56-.99.94s-.5.79-.69 1.26c-.07.14-.11.28-.15.44-.03.16-.07.31-.11.46-.02.06-.02.12-.03.16l-.03.16c-.03.09-.03.18-.02.27.01.09.01.18-.02.27-.03.08-.04.19-.04.35s0 .27.02.33c.01.06.02.12.02.16v.16c.02.1.04.21.04.32.01.11.02.21.05.31.02.05.02.09.01.13 0 .03.01.07.03.12.03.14.05.27.09.39.03.12.07.25.14.38.24.58.54 1.07.91 1.48.36.41.83.74 1.4.99.15.06.31.12.47.17l.51.15.46.06h.11c.04.01.08.01.13.01.05-.01.1-.01.15.01.04.01.1.02.2.02s.16-.01.22-.02c.07 0 .15-.01.23-.01l.24-.03.48-.08c.16-.03.3-.07.44-.12.64-.21 1.18-.53 1.62-.94.44-.41.8-.92 1.06-1.52.06-.14.11-.29.15-.46.03-.17.08-.33.13-.49.02-.07.04-.15.05-.23 0-.08.02-.15.04-.23.02-.1.02-.19.03-.27l.03-.27v-.19c.01-.07.02-.18.02-.33s-.01-.28-.04-.36c-.01-.06-.01-.13-.01-.2zm-1.67 1.28c-.05.18-.087.35-.106.52-.02.17-.06.333-.12.484-.18.43-.4.8-.666 1.116-.27.318-.616.565-1.04.74-.09.04-.188.068-.29.088-.1.02-.2.04-.3.07-.05.026-.1.035-.15.03-.05-.007-.105-.003-.15.01-.06.024-.16.03-.28.02s-.193-.026-.23-.04c-.064-.01-.124-.015-.18-.01-.058.01-.118 0-.18-.027-.14-.04-.27-.08-.39-.12s-.23-.09-.33-.16c-.064-.03-.12-.07-.17-.09-.05-.02-.11-.05-.17-.09-.255-.17-.466-.39-.637-.66-.17-.26-.32-.55-.44-.85-.05-.1-.09-.21-.1-.33-.02-.12-.04-.24-.07-.37l-.03-.23c-.02-.1-.04-.21-.04-.34v-.38c0-.06 0-.12-.01-.17-.01-.05 0-.09.01-.13 0-.11.01-.19.02-.24l.06-.4s.04-.26.08-.39c.14-.4.3-.75.49-1.06.19-.3.44-.56.74-.77.06-.05.13-.1.21-.15.08-.05.16-.09.25-.11.1-.05.21-.09.31-.12s.23-.06.35-.09l.35-.05h.34c.12 0 .22.01.33.04.1.03.2.05.3.07.1.02.2.05.29.09.77.31 1.34.88 1.69 1.7.04.09.07.18.1.28.02.1.05.2.09.31.09.34.13.76.13 1.25 0 .1.01.21.01.32.01.12 0 .22-.03.31zm17.335-2.896c.01-.063.006-.12-.01-.17v-.17c-.01-.04-.013-.08-.01-.125.01-.05 0-.09-.024-.13-.02-.14-.05-.27-.07-.39s-.06-.23-.11-.33c-.24-.58-.68-1.01-1.31-1.29-.06-.03-.12-.04-.18-.05-.06-.01-.11-.02-.18-.05-.1-.04-.2-.07-.31-.09-.1-.02-.22-.04-.33-.07-.12 0-.22-.01-.28-.02-.05-.02-.13-.02-.24-.03-.11-.01-.2 0-.27.02h-.18c-.06 0-.12.01-.18.02-.11.02-.23.05-.35.07-.12.02-.23.04-.33.08-.23.08-.43.17-.62.28s-.37.23-.55.37c-.1.06-.19.15-.29.27-.09.12-.2.2-.33.24-.08.01-.14 0-.19-.04-.05-.04-.09-.07-.11-.09-.09-.09-.17-.19-.24-.3-.07-.11-.15-.19-.25-.26-.28-.21-.58-.38-.92-.49-.33-.12-.74-.17-1.22-.15-.07 0-.15 0-.23.01-.08 0-.16.01-.24.01-.14.03-.27.06-.39.08s-.26.05-.38.1c-.36.15-.67.33-.95.53-.07.06-.15.12-.22.19-.07.06-.14.13-.21.19-.03.02-.06.04-.09.04s-.06.01-.08.04c-.08 0-.15-.03-.19-.08-.04-.05-.06-.12-.07-.19l-.03-.25c-.01-.09-.02-.17-.05-.23-.03-.08-.1-.14-.2-.19-.1-.04-.26-.06-.48-.06s-.38.02-.48.06c-.07.02-.13.07-.17.15-.05.08-.07.17-.07.29v8.81c0 .12.03.22.09.29.05.06.11.1.18.11.07.01.15.03.22.06h.29c.14 0 .27-.01.4-.02s.22-.06.28-.15c.08-.1.12-.24.12-.42v-4.74c0-.2 0-.41-.01-.62-.01-.21.02-.39.07-.56.21-.78.64-1.37 1.28-1.76.17-.1.35-.18.56-.24s.45-.1.73-.1h.18c.06 0 .11.01.16.02.31.06.55.15.72.25.18.11.34.27.48.5.15.25.24.55.26.9.03.34.04.72.04 1.12v4.92c0 .17.01.34.03.48.02.14.09.25.2.31.1.05.26.08.48.08.16 0 .32 0 .47-.02s.26-.07.32-.17c.06-.09.1-.21.1-.37V42c0-.29 0-.57.01-.85 0-.28.04-.52.1-.74.23-.69.67-1.18 1.33-1.46.17-.06.34-.11.51-.15.06-.02.12-.03.19-.03.06.01.12.01.18-.01.04-.01.12-.02.23-.02.12-.005.2 0 .25.01.09.03.17.04.26.05.08.01.16.02.24.05.39.14.68.36.87.66.16.252.26.564.27.94.02.37.03.77.03 1.182v4.47c0 .076 0 .155-.01.237-.01.08 0 .15.01.22.02.07.03.15.02.24s-.01.16.02.24c.02.11.07.19.15.23.05.03.13.06.25.07.12.01.24.02.37.02.12 0 .24-.01.36-.03.11-.02.19-.05.24-.09.12-.09.17-.27.16-.55 0-.28-.01-.52-.01-.72v-5.55c0-.06.01-.13.01-.19zm10.87 1.59c-.004-.09-.013-.177-.025-.265-.05-.18-.09-.36-.12-.53-.03-.18-.08-.35-.14-.51-.064-.17-.12-.33-.17-.49-.05-.17-.12-.32-.21-.46-.14-.24-.31-.5-.51-.76-.08-.1-.17-.21-.276-.31-.107-.1-.21-.19-.31-.27-.05-.02-.095-.06-.13-.1-.04-.05-.09-.08-.16-.11-.313-.2-.67-.36-1.06-.48s-.852-.18-1.382-.16c-.024.02-.056.03-.093.02-.04-.02-.07-.02-.1 0-.06 0-.12 0-.17.01-.05 0-.11.01-.17.03l-.5.1c-.16.03-.32.08-.47.14-.52.21-.96.48-1.31.8-.35.32-.67.7-.95 1.14-.08.14-.14.29-.2.43-.06.15-.12.29-.18.43-.08.18-.13.36-.16.57s-.07.4-.13.6c-.01.06-.02.13-.01.2 0 .07-.01.13-.03.2v.21c-.02.06-.02.14-.01.24 0 .09.01.16.03.21v.26c.02.11.04.23.05.34.01.11.03.22.06.32.01.06.02.11.02.15 0 .04 0 .08.02.13.05.15.09.3.12.45.03.15.08.3.14.44.18.43.39.82.65 1.17s.57.64.94.88c.22.13.42.24.61.32.05.02.09.04.13.04.04.01.08.02.13.05.1.04.21.07.32.1s.23.06.34.08c.06.01.13.02.21.03.08.01.15.02.21.03.05.01.1.02.15.02.05 0 .11 0 .17.02h.17c.05.01.12.02.2.02s.15-.01.22-.02h.19c.06-.02.12-.02.18-.02.05 0 .11-.01.18-.02.14-.03.27-.05.39-.07.12-.02.25-.05.38-.1.49-.17.89-.38 1.22-.64.32-.26.61-.59.86-1 .16-.27.29-.57.39-.91.06-.21.03-.35-.1-.44-.04-.04-.11-.06-.21-.08l-.32-.03c-.11 0-.23 0-.34.01-.11.02-.2.03-.25.06-.14.07-.24.17-.3.31-.06.14-.12.27-.2.4-.08.14-.16.27-.27.39-.1.12-.22.22-.36.31-.13.09-.26.16-.41.22s-.31.11-.49.16-.41.07-.7.07-.52-.03-.7-.08c-.09 0-.15-.01-.19-.02l-.27-.08c-.09-.02-.17-.06-.25-.09-.67-.29-1.15-.77-1.44-1.46-.05-.1-.09-.2-.12-.31l-.07-.31c-.02-.05-.02-.1-.02-.15s-.01-.1-.02-.17c-.03-.06-.03-.13 0-.2.02-.07.05-.12.07-.16.05-.07.1-.12.15-.15.07-.04.15-.06.25-.06.1-.01.2-.01.3-.01h4.85c.11 0 .25 0 .4.01.15 0 .3.01.46.01.15 0 .28-.01.4-.03.12-.02.21-.06.28-.11.06-.06.11-.17.13-.33.02-.16.02-.3-.01-.43l-.03-.27zm-1.71-.577c-.025.087-.057.15-.095.2-.09.1-.265.15-.53.14-.265 0-.492-.01-.682-.01h-2.876c-.175 0-.39.01-.632.01-.247.01-.42-.022-.52-.1-.078-.05-.12-.122-.135-.223-.017-.1-.01-.207.02-.32s.052-.22.09-.31.074-.176.112-.238c.18-.34.378-.625.6-.85s.513-.42.88-.57c.09-.026.18-.048.273-.067.097-.02.194-.04.296-.07.037-.02.08-.02.13-.01.05 0 .098-.01.135-.03h.33c.12 0 .22.01.32.04.1.02.2.04.28.06.09.02.18.04.26.06.34.14.62.31.83.51s.41.45.59.74c.14.24.25.5.32.77.03.09.03.17 0 .26zm11.002 2.74c-.027-.15-.05-.27-.077-.36-.126-.29-.283-.53-.473-.72s-.41-.36-.66-.51c-.064-.04-.127-.07-.19-.094l-.19-.072c-.25-.1-.504-.18-.756-.25l-.77-.21c-.16-.05-.33-.09-.49-.11-.16-.02-.33-.06-.49-.11-.25-.08-.5-.14-.76-.2-.25-.06-.48-.15-.68-.27-.16-.1-.3-.19-.4-.28-.11-.08-.2-.22-.27-.4-.03-.06-.05-.13-.07-.22-.02-.08-.02-.17.01-.26.08-.33.22-.56.44-.7.22-.14.49-.25.82-.32l.19-.03c.06-.01.12-.01.19-.03h.12c.08-.02.17-.03.29-.03.12 0 .21.02.29.04.06.02.13.02.19.01.06 0 .13.01.19.03.19.05.36.1.53.15.16.05.31.13.45.23.2.17.36.35.47.55.06.1.11.21.14.31.03.11.1.19.2.26.06.04.18.07.34.09.16.02.3.02.4-.01.06-.01.12-.01.19 0s.12.01.19-.02c.02-.02.05-.05.09-.06.03-.02.07-.04.09-.07.02-.05.04-.12.05-.22s.01-.19-.02-.27c-.05-.18-.1-.34-.15-.48-.05-.14-.12-.28-.21-.42-.34-.56-.82-.94-1.43-1.16-.62-.22-1.38-.32-2.29-.31-.02.02-.07.03-.13.02-.06-.01-.11-.01-.15 0l-.27.04-.25.04c-.25.06-.49.13-.71.2-.23.07-.43.16-.62.27-.25.16-.48.35-.67.57-.19.21-.35.47-.46.76-.02.05-.04.1-.05.14 0 .05-.02.1-.04.16-.03.14-.05.31-.06.5-.01.2 0 .37.04.52.03.1.05.2.07.29.02.09.04.18.08.27.11.27.27.49.47.66.2.18.43.34.67.48.1.06.21.11.32.15s.24.08.36.14c.41.16.84.28 1.3.35.46.07.91.17 1.34.31.03.02.07.03.1.03s.06.01.1.02l.42.15c.14.05.26.12.38.19.17.1.32.21.43.33.11.12.2.3.27.54.02.04.03.1.04.17s.01.15-.02.21c-.08.39-.24.67-.45.84s-.5.3-.87.4l-.21.03c-.07 0-.15.01-.23.02-.05.01-.12.02-.21.02-.1.02-.22.04-.37.04-.14 0-.26-.02-.35-.04h-.11l-.4-.06c-.22-.06-.42-.13-.61-.19s-.36-.15-.51-.26c-.22-.15-.39-.37-.51-.65-.05-.1-.1-.21-.13-.33-.03-.12-.09-.21-.18-.27-.04-.03-.11-.05-.22-.07-.1-.02-.22-.04-.33-.05s-.23-.013-.34-.01c-.11.01-.2.02-.26.05-.09.05-.15.1-.19.15-.02.06-.04.15-.05.257 0 .11 0 .2.03.27.06.21.13.41.21.59.07.17.17.34.28.51.22.3.47.55.76.74.29.19.63.34 1.03.47.1.04.2.07.29.08l.29.067c.1 0 .18.01.24.02.07.03.14.04.23.03.09-.01.17 0 .25.03h.21c.06.01.15.02.26.02s.21-.01.27-.02h.19c.13-.03.26-.04.38-.04s.26-.012.38-.04c.12-.034.23-.063.35-.082s.24-.04.35-.08c.4-.14.75-.31 1.07-.5.32-.2.58-.46.78-.79.06-.1.12-.213.17-.34.05-.13.09-.26.13-.4.02-.09.04-.18.04-.263 0-.09.01-.173.03-.26v-.19c0-.11 0-.22-.01-.31 0-.1-.02-.19-.04-.28zm5.964 2.14c-.05-.074-.13-.122-.23-.14-.11-.02-.22-.027-.35-.027h-.25c-.04-.016-.08-.02-.12-.01-.05.004-.09 0-.12-.01-.14-.028-.26-.06-.36-.098-.1-.037-.18-.106-.24-.208-.11-.165-.16-.4-.16-.71.01-.31.01-.604.01-.88v-3.75c0-.128 0-.257-.01-.39 0-.13 0-.26.01-.38s.04-.225.08-.313.1-.15.19-.19c.1-.03.22-.05.36-.05.14 0 .28.01.43.01.15.01.29.01.42 0 .13 0 .24-.04.31-.1.07-.06.12-.15.13-.27s.02-.25.02-.39v-.19c0-.06-.01-.12-.04-.17-.04-.07-.11-.15-.23-.23-.09-.03-.23-.05-.44-.04-.2.01-.37.01-.51.01h-.18c-.06 0-.12 0-.18-.02-.18-.05-.29-.16-.34-.34-.02-.07-.03-.17-.03-.27.01-.11.01-.21.01-.31v-1.1c0-.14 0-.28-.01-.41 0-.13-.04-.23-.1-.31-.07-.1-.21-.15-.39-.16-.19-.01-.38-.01-.57-.01-.03 0-.06 0-.09.01s-.06.01-.1.01c-.14.06-.23.15-.28.25-.02.08-.04.17-.04.28v1.81c0 .12-.01.21-.03.29-.07.11-.15.2-.27.27-.15.05-.34.06-.56.04-.22-.03-.4-.01-.54.04-.12.07-.2.16-.23.28s-.03.27-.03.45c0 .07.01.13.01.19.01.06.02.12.05.17.04.12.11.19.22.22s.25.05.41.05h.31c.05.02.1.03.15.02s.1-.01.15 0c.15.05.25.11.28.19.03.08.07.2.1.36v4.96c0 .44.01.86.04 1.24.02.39.13.7.3.96.13.19.28.32.47.4.18.08.4.15.65.21.06 0 .12.01.18.01l.18.03h.23c.07.02.14.02.21.01.08 0 .15-.01.23-.01.1 0 .21.01.34.01.13.01.24 0 .34-.03.14-.04.23-.1.28-.19.04-.05.06-.12.08-.21s.02-.19.01-.3c-.01-.1-.02-.2-.04-.29-.02-.09-.04-.16-.06-.2zm10.53.38c0-.04-.01-.076-.04-.113-.05-.1-.12-.16-.22-.18-.1-.02-.21-.05-.32-.1-.1-.04-.18-.105-.24-.19-.06-.1-.1-.235-.11-.4-.01-.16-.02-.33-.02-.51v-4.19c0-.365-.01-.716-.02-1.05-.02-.334-.09-.628-.2-.88-.27-.606-.73-1.017-1.38-1.23s-1.43-.316-2.31-.304c-.02.025-.09.035-.2.028-.11 0-.19 0-.24.01-.14.03-.27.05-.41.06s-.26.03-.39.06c-.54.15-1 .35-1.36.6s-.67.59-.91 1.032c-.06.136-.11.28-.16.423-.04.145-.08.3-.12.463-.02.1-.02.196 0 .284.03.09.06.15.12.19.05.04.14.068.26.087.12.02.24.03.37.03s.25-.01.37-.026c.12-.02.21-.04.26-.08.09-.06.15-.15.18-.26.03-.11.07-.22.11-.32.06-.14.14-.27.22-.39.08-.12.17-.22.27-.29.2-.14.41-.24.63-.32.15-.05.33-.09.55-.11s.44-.04.66-.04c.23 0 .44.01.65.04.21.03.39.07.54.14.27.1.47.24.62.42.15.18.26.42.33.72.05.19.05.37 0 .52-.05.16-.11.29-.19.39-.16.23-.38.37-.66.43s-.57.12-.89.2c-.1.02-.2.04-.28.05-.09.01-.18.02-.27.05-.1.03-.19.04-.27.04s-.17.01-.26.04c-.19.04-.38.07-.57.09s-.37.06-.55.11c-.47.14-.9.3-1.29.48s-.7.45-.92.82c-.08.12-.14.24-.19.38l-.15.42-.03.22-.03.2v.39c0 .39.06.73.17 1 .15.38.35.68.58.89.23.21.54.4.92.56.09.04.18.07.28.09.1.02.2.04.31.07.04.01.07.02.11.01.03-.01.08 0 .13.01.05.03.11.04.17.04s.13 0 .19.02h.17c.13.02.26.02.4 0h.14c.05 0 .1-.01.16-.02.14-.03.29-.05.43-.06.15-.01.28-.04.41-.08.22-.06.42-.13.61-.21.19-.08.37-.17.53-.27.12-.07.23-.16.35-.26.12-.1.25-.17.39-.21.05-.01.09-.01.12.02l.09.07c.08.08.14.18.19.3.05.12.11.23.17.31.1.14.29.26.56.35s.55.11.82.05c.08-.02.15-.04.22-.04s.13-.01.2-.03c.13-.06.23-.16.3-.29.08-.14.1-.3.06-.51-.01-.06-.02-.11-.02-.15zm-2.56-2.566c-.01.23-.05.44-.12.62-.14.37-.34.66-.6.87s-.57.4-.94.55c-.09.04-.18.07-.27.08s-.19.03-.29.06c-.08.03-.15.04-.23.03-.07-.01-.15 0-.23.03-.09.03-.2.04-.33.03-.13 0-.24-.02-.33-.04-.06-.01-.12-.02-.19-.02s-.12 0-.19-.02c-.18-.06-.36-.14-.53-.23s-.29-.21-.39-.35c-.06-.09-.11-.19-.16-.29s-.06-.22-.06-.35c-.01-.28.01-.51.08-.71.06-.19.16-.36.29-.5.13-.14.28-.25.46-.35.18-.09.37-.17.57-.23l.28-.07.27-.07c.19-.05.4-.08.62-.09.22 0 .43-.03.62-.08.05 0 .1 0 .15-.01.04 0 .08-.01.12-.01l.38-.07.34-.07c.05-.02.11-.04.17-.04.06 0 .11-.01.13-.03.14 0 .23.01.27.04.08.06.14.15.15.27s.02.24.02.38c0 .25-.01.49-.01.73zm11.92-6.26c-.06-.04-.14-.06-.24-.06-.09 0-.19-.01-.29-.01-.19 0-.36.01-.52.02-.16.01-.28.08-.37.19-.06.08-.11.17-.14.28-.03.11-.07.22-.1.32-.04.12-.07.23-.11.35-.04.12-.08.24-.13.35l-.06.17c-.01.05-.03.11-.05.17-.06.15-.11.31-.16.46-.04.16-.1.32-.16.47-.02.07-.04.12-.06.17-.01.05-.03.11-.05.17-.04.11-.08.22-.12.34s-.08.24-.13.35l-.06.25c-.12.28-.23.57-.32.86-.09.3-.19.59-.3.88-.09.23-.16.46-.22.7-.06.24-.14.47-.24.69-.03.07-.07.15-.13.26-.05.11-.13.14-.23.1-.09-.02-.15-.08-.19-.18s-.08-.18-.11-.27l-.19-.54c-.06-.18-.13-.36-.21-.54-.03-.04-.04-.08-.04-.12s-.01-.09-.04-.14c-.15-.36-.29-.74-.41-1.13s-.26-.77-.42-1.14c-.06-.15-.11-.3-.15-.45-.04-.15-.09-.29-.15-.43-.06-.15-.12-.3-.17-.46-.05-.16-.11-.31-.17-.46-.06-.16-.12-.33-.17-.49-.05-.16-.11-.33-.17-.49-.05-.12-.1-.22-.14-.32-.04-.1-.12-.18-.22-.24s-.26-.09-.47-.08c-.21.01-.4.01-.57.01-.02.01-.05.02-.08.01s-.06 0-.08.01c-.11.02-.19.07-.23.13-.06.09-.07.2-.02.33.05.14.09.24.11.31.12.28.22.56.33.83.1.27.21.55.34.84.23.56.45 1.11.67 1.67.22.56.45 1.11.67 1.67.06.18.13.35.19.51.06.17.13.34.21.52.1.25.2.51.31.77.1.27.21.53.32.8l.22.53c.07.18.14.37.2.57.05.18.05.35-.01.52s-.11.3-.16.41c-.07.18-.14.35-.21.53s-.15.34-.24.5c-.09.16-.2.3-.32.43-.12.12-.28.22-.47.28-.12.05-.27.08-.43.08s-.31-.01-.45-.04c-.21-.06-.37-.02-.45.12-.04.05-.06.12-.07.2-.01.08-.01.17-.01.26 0 .13 0 .24.01.35.01.11.04.2.11.28.05.07.12.13.22.15l.29.08c.07 0 .14.01.19.02.1.03.2.03.3 0 .07-.01.14-.01.21 0s.14.01.2-.02c.18-.04.33-.08.47-.12.14-.05.28-.11.42-.18.41-.25.72-.61.95-1.07.23-.46.44-.93.65-1.39.03-.08.05-.15.07-.22s.04-.14.06-.2c.36-.88.7-1.75 1.02-2.64.31-.88.65-1.76 1.02-2.63.1-.25.2-.51.29-.77s.19-.52.3-.77c.03-.09.07-.18.09-.26.02-.08.057-.17.09-.27l.42-1.07.42-1.07c.02-.03.03-.05.03-.08l.03-.073c.04-.09.08-.216.13-.38.06-.16.02-.28-.09-.36z"/>
</svg>
