<svg xmlns="http://www.w3.org/2000/svg" viewBox="0 0 595.28 595.28">
  <path fill="#FFF" d="M297.52 573.12L188.6 464.2l9.9-9.9c16.97-17.68 26.88-40.3 26.88-65.07 0-50.92-41.02-91.95-91.94-91.95-24.05 0-47.4 9.2-64.36 26.88l-10.6 10.6-9.9-10.6C-17.92 252.73-15.8 143.1 52.8 74.5c33.96-33.95 79.22-52.34 127.32-52.34 43.14 0 84.16 15.56 117.4 43.14 32.53-28.3 73.55-43.14 117.4-43.14 48.1 0 93.37 18.4 127.32 53.04 33.95 33.95 53.04 79.2 53.04 127.3 0 48.1-18.4 93.37-52.34 127.32l-245.42 243.3zm-69.3-108.92l69.3 69.3 224.2-224.9c28.3-28.3 44.56-66.48 44.56-107.5 0-40.3-15.56-78.5-44.56-107.5-28.3-28.3-66.48-44.56-107.5-44.56s-78.5 15.56-107.5 44.56l-9.2 10.6-9.9-9.9c-28.28-28.28-66.47-44.55-106.8-44.55-40.3 0-78.5 15.56-106.8 44.56-54.45 54.48-59.4 140.06-12.72 200.17 21.22-16.27 46.68-24.75 72.85-24.75 66.48 0 120.23 53.76 120.23 120.24-.7 26.87-9.2 53.04-26.17 74.26zm-87.7-42.44c-7.8 0-14.16 6.37-14.16 14.15s6.37 14.17 14.15 14.17c7.8 0 14.17-6.37 14.17-14.15s-6.37-14.14-14.15-14.14zm-14.16-67.9v47.4c0 7.78 6.37 14.14 14.15 14.14 7.8 0 14.17-6.37 14.17-14.14v-47.4c0-7.77-6.37-14.13-14.15-14.13-7.77 0-14.14 6.36-14.14 14.14z"/>
  <path fill="#010101" d="M297.52 573.12L188.6 464.2l9.9-9.9c16.97-17.68 26.88-40.3 26.88-65.07 0-50.92-41.02-91.95-91.94-91.95-24.05 0-47.4 9.2-64.36 26.88l-10.6 10.6-9.9-10.6C-17.92 252.73-15.8 143.1 52.8 74.5c33.96-33.95 79.22-52.34 127.32-52.34 43.14 0 84.16 15.56 117.4 43.14 32.53-28.3 73.55-43.14 117.4-43.14 48.1 0 93.37 18.4 127.32 53.04 33.95 33.95 53.04 79.2 53.04 127.3 0 48.1-18.4 93.37-52.34 127.32l-245.42 243.3zm-69.3-108.92l69.3 69.3 224.2-224.9c28.3-28.3 44.56-66.48 44.56-107.5 0-40.3-15.56-78.5-44.56-107.5-28.3-28.3-66.48-44.56-107.5-44.56s-78.5 15.56-107.5 44.56l-9.2 10.6-9.9-9.9c-28.28-28.28-66.47-44.55-106.8-44.55-40.3 0-78.5 15.56-106.8 44.56-54.45 54.48-59.4 140.06-12.72 200.17 21.22-16.27 46.68-24.75 72.85-24.75 66.48 0 120.23 53.76 120.23 120.24-.7 26.87-9.2 53.04-26.17 74.26zm-87.7-42.44c-7.8 0-14.16 6.37-14.16 14.15s6.37 14.17 14.15 14.17c7.8 0 14.17-6.37 14.17-14.15s-6.37-14.14-14.15-14.14zm-14.16-67.9v47.4c0 7.78 6.37 14.14 14.15 14.14 7.8 0 14.17-6.37 14.17-14.14v-47.4c0-7.77-6.37-14.13-14.15-14.13-7.77 0-14.14 6.36-14.14 14.14z"/>
</svg>
